<?xml version="1.0" encoding="UTF-8"?>
<svg width="17px" height="17px" viewBox="0 0 17 17" version="1.1" xmlns="http://www.w3.org/2000/svg" xmlns:xlink="http://www.w3.org/1999/xlink">
    <!-- Generator: Sketch 56.3 (81716) - https://sketch.com -->
    <title>navigation/icon/menu.item/active</title>
    <desc>Created with Sketch.</desc>
    <defs>
        <path d="M14.08,1.76 L14.08,3.52 L10.56,3.52 L10.56,1.76 L14.08,1.76 L14.08,1.76 Z M5.28,1.76 L5.28,7.04 L1.76,7.04 L1.76,1.76 L5.28,1.76 L5.28,1.76 Z M14.08,8.8 L14.08,14.08 L10.56,14.08 L10.56,8.8 L14.08,8.8 L14.08,8.8 Z M5.28,12.32 L5.28,14.08 L1.76,14.08 L1.76,12.32 L5.28,12.32 L5.28,12.32 Z M15.84,0 L8.8,0 L8.8,5.28 L15.84,5.28 L15.84,0 Z M7.04,0 L0,0 L0,8.8 L7.04,8.8 L7.04,0 Z M15.84,7.04 L8.8,7.04 L8.8,15.84 L15.84,15.84 L15.84,7.04 Z M7.04,10.56 L0,10.56 L0,15.84 L7.04,15.84 L7.04,10.56 Z" id="path-1"></path>
    </defs>
    <g id="Page-1" stroke="none" stroke-width="1" fill="none" fill-rule="evenodd">
        <g id="0-1-1-EC-Agent/-User-Settings" transform="translate(-82.000000, -96.000000)">
            <g id="Group-2" transform="translate(0.000000, 64.000000)">
                <g id="Group-29" transform="translate(82.000000, 32.888889)">
                    <g id="navigation/icon/menu.item/active">
                        <g id="icons/ic/outline-dashboard-24px" transform="translate(0.360000, 0.000000)">
                            <mask id="mask-2" fill="white">
                                <use xlink:href="#path-1"></use>
                            </mask>
                            <g fill-rule="nonzero"></g>
                            <g id="🎨-color" mask="url(#mask-2)" fill="#66788A">
                                <g transform="translate(-2.520000, -1.800000)" id="BG">
                                    <rect x="0" y="0" width="19.8" height="19.8"></rect>
                                </g>
                            </g>
                        </g>
                    </g>
                </g>
            </g>
        </g>
    </g>
</svg>