<?xml version="1.0" encoding="UTF-8"?>
<svg xmlns="http://www.w3.org/2000/svg" xmlns:xlink="http://www.w3.org/1999/xlink" width="20pt" height="20pt" viewBox="0 0 20 20" version="1.1">
<g id="surface1">
<path style=" stroke:none;fill-rule:nonzero;fill:rgb(100%,100%,100%);fill-opacity:1;" d="M 6.851562 13.148438 C 6.65625 12.949219 6.339844 12.949219 6.144531 13.148438 L 1 18.292969 L 1 15.5 C 1 15.222656 0.777344 15 0.5 15 C 0.222656 15 0 15.222656 0 15.5 L 0 19.5 C 0 19.777344 0.222656 20 0.5 20 L 4.5 20 C 4.777344 20 5 19.777344 5 19.5 C 5 19.222656 4.777344 19 4.5 19 L 1.707031 19 L 6.851562 13.855469 C 7.046875 13.660156 7.046875 13.34375 6.851562 13.148438 Z M 6.851562 13.148438 "/>
<path style=" stroke:none;fill-rule:nonzero;fill:rgb(100%,100%,100%);fill-opacity:1;" d="M 19.5 0 L 15.5 0 C 15.222656 0 15 0.222656 15 0.5 C 15 0.777344 15.222656 1 15.5 1 L 18.292969 1 L 13.148438 6.144531 C 12.953125 6.339844 12.953125 6.65625 13.148438 6.851562 C 13.34375 7.046875 13.660156 7.046875 13.855469 6.851562 L 19 1.707031 L 19 4.5 C 19 4.777344 19.222656 5 19.5 5 C 19.777344 5 20 4.777344 20 4.5 L 20 0.5 C 20 0.222656 19.777344 0 19.5 0 Z M 19.5 0 "/>
</g>
</svg>
