<?xml version="1.0" encoding="UTF-8"?>
<svg width="17px" height="18px" viewBox="0 0 17 18" version="1.1" xmlns="http://www.w3.org/2000/svg" xmlns:xlink="http://www.w3.org/1999/xlink">
    <!-- Generator: Sketch 56.3 (81716) - https://sketch.com -->
    <title>Group</title>
    <desc>Created with Sketch.</desc>
    <g id="Page-1" stroke="none" stroke-width="1" fill="none" fill-rule="evenodd">
        <g id="0-1-1-EC-Agent/-User-Settings" transform="translate(-623.000000, -99.000000)" fill="#66788A" fill-rule="nonzero">
            <g id="Group-2" transform="translate(0.000000, 64.000000)">
                <g id="Group-29" transform="translate(82.000000, 32.888889)">
                    <g id="Group-15" transform="translate(541.000000, 0.000000)">
                        <g id="Group" transform="translate(0.000000, 3.000000)">
                            <path d="M7.07710427,14.156944 C8.29391337,14.156944 9.43887126,13.8490281 10.4391369,13.3076524 L12.6920033,15.5593677 C13.4868513,16.3468774 14.7678099,16.3468774 15.5576328,15.5593677 C16.3474557,14.7668094 16.3474557,13.4896391 15.5576328,12.7021293 L13.3007917,10.4501064 C13.8450064,9.44761074 14.1542388,8.29908291 14.1542388,7.07848966 C14.1542388,3.17014722 10.9846748,0 7.07710427,0 C3.16953378,0 0,3.17014218 0,7.07848462 C0,10.9867968 3.16953378,14.156944 7.07710427,14.156944 Z M7.07710427,2.02241625 C9.86246866,2.02241625 12.1321932,4.29257031 12.1321932,7.07848966 C12.1321932,9.86942217 9.86246866,12.1345278 7.07710427,12.1345278 C4.28668449,12.1345278 2.02201536,9.86942217 2.02201536,7.07848966 C2.02201536,4.29257031 4.28668449,2.02241625 7.07710427,2.02241625 Z" id="Shape"></path>
                            <path d="M7.27220964,4.34443607 C8.83460925,4.34443607 10.105543,5.61538795 10.105543,7.17778196 C10.105543,7.43854524 10.3169855,7.65 10.5777856,7.65 C10.8385528,7.65 11.05,7.43854524 11.05,7.17778196 C11.05,5.09472812 9.35526129,3.4 7.27221436,3.4 C7.01144722,3.4 6.8,3.6114265 6.8,3.87221804 C6.8,4.13300957 7.0114425,4.34443607 7.27220964,4.34443607 Z" id="Path"></path>
                        </g>
                    </g>
                </g>
            </g>
        </g>
    </g>
</svg>