<?xml version="1.0" encoding="UTF-8"?>
<svg width="38px" height="29px" viewBox="0 0 38 29" version="1.1" xmlns="http://www.w3.org/2000/svg" xmlns:xlink="http://www.w3.org/1999/xlink">
    <!-- Generator: Sketch 56.3 (81716) - https://sketch.com -->
    <title>Group 18 Copy</title>
    <desc>Created with Sketch.</desc>
    <g id="Welcome" stroke="none" stroke-width="1" fill="none" fill-rule="evenodd">
        <g id="View" transform="translate(-1007.000000, -411.000000)">
            <g id="Group-19" transform="translate(1026.000000, 401.000000) rotate(-90.000000) translate(-1026.000000, -401.000000) translate(986.500000, 381.500000)">
                <g id="Group-18-Copy" transform="translate(15.000000, 19.500000) rotate(-180.000000) translate(-15.000000, -19.500000) translate(-0.000000, 0.000000)">
                    <g id="Group-17" transform="translate(0.000000, 0.000000)">
                        <g id="import-export-copy-5" transform="translate(1.000000, 0.538462)" fill="#3B73B9">
                            <g id="Buttons-/-Contained-/-Enabled-Copy-5">
                                <path d="M2.4,0 L25.8,0 C27.1254834,-2.15392964e-15 28.2,1.0745166 28.2,2.4 L28.2,34.8335664 C28.2,36.1590498 27.1254834,37.2335664 25.8,37.2335664 L2.4,37.2335664 C1.0745166,37.2335664 6.0641411e-16,36.1590498 0,34.8335664 L0,2.4 C-1.623249e-16,1.0745166 1.0745166,-1.08878028e-15 2.4,0 Z" id="Surface"></path>
                            </g>
                        </g>
                        <g id="ic_arrow_drop_down-copy-4" transform="translate(14.500000, 19.500000) rotate(-180.000000) translate(-14.500000, -19.500000) translate(-0.000000, 0.000000)">
                            <polygon id="Bounds" points="0 1.13686838e-13 28.2 1.13686838e-13 28.2 39 0 39"></polygon>
                            <polygon id="Icon" fill="#FFFFFF" points="8.4 17.4 14.1 23.4 19.8 17.4"></polygon>
                        </g>
                    </g>
                </g>
            </g>
        </g>
    </g>
</svg>