<?xml version="1.0" encoding="UTF-8"?>
<svg width="17px" height="18px" viewBox="0 0 17 18" version="1.1" xmlns="http://www.w3.org/2000/svg" xmlns:xlink="http://www.w3.org/1999/xlink">
    <!-- Generator: Sketch 56.3 (81716) - https://sketch.com -->
    <title>Shape</title>
    <desc>Created with Sketch.</desc>
    <g id="Page-1" stroke="none" stroke-width="1" fill="none" fill-rule="evenodd">
        <g id="0-1-1-EC-Agent/-User-Settings" transform="translate(-955.000000, -98.000000)" fill="#66788A" fill-rule="nonzero">
            <g id="Group-2" transform="translate(0.000000, 64.000000)">
                <g id="Group-29" transform="translate(82.000000, 32.888889)">
                    <g id="Group-13" transform="translate(873.000000, 0.000000)">
                        <path d="M14.299443,11.15 C14.3327763,10.8833333 14.3577763,10.6166667 14.3577763,10.3333333 C14.3577763,10.05 14.3327763,9.78333333 14.299443,9.51666667 L16.0577763,8.14166667 C16.2161097,8.01666667 16.2577763,7.79166667 16.1577763,7.60833333 L14.4911097,4.725 C14.4161097,4.59166667 14.274443,4.51666667 14.124443,4.51666667 C14.074443,4.51666667 14.024443,4.525 13.9827763,4.54166667 L11.9077763,5.375 C11.474443,5.04166667 11.0077763,4.76666667 10.499443,4.55833333 L10.1827763,2.35 C10.1577763,2.15 9.98277634,2 9.774443,2 L6.44110967,2 C6.23277634,2 6.05777634,2.15 6.03277634,2.35 L5.71610967,4.55833333 C5.20777634,4.76666667 4.74110967,5.05 4.30777634,5.375 L2.23277634,4.54166667 C2.18277634,4.525 2.13277634,4.51666667 2.08277634,4.51666667 C1.94110967,4.51666667 1.799443,4.59166667 1.724443,4.725 L0.0577763366,7.60833333 C-0.0505569967,7.79166667 -0.000556996724,8.01666667 0.157776337,8.14166667 L1.91610967,9.51666667 C1.88277634,9.78333333 1.85777634,10.0583333 1.85777634,10.3333333 C1.85777634,10.6083333 1.88277634,10.8833333 1.91610967,11.15 L0.157776337,12.525 C-0.000556996724,12.65 -0.0422236634,12.875 0.0577763366,13.0583333 L1.724443,15.9416667 C1.799443,16.075 1.94110967,16.15 2.09110967,16.15 C2.14110967,16.15 2.19110967,16.1416667 2.23277634,16.125 L4.30777634,15.2916667 C4.74110967,15.625 5.20777634,15.9 5.71610967,16.1083333 L6.03277634,18.3166667 C6.05777634,18.5166667 6.23277634,18.6666667 6.44110967,18.6666667 L9.774443,18.6666667 C9.98277634,18.6666667 10.1577763,18.5166667 10.1827763,18.3166667 L10.499443,16.1083333 C11.0077763,15.9 11.474443,15.6166667 11.9077763,15.2916667 L13.9827763,16.125 C14.0327763,16.1416667 14.0827763,16.15 14.1327763,16.15 C14.274443,16.15 14.4161097,16.075 14.4911097,15.9416667 L16.1577763,13.0583333 C16.2577763,12.875 16.2161097,12.65 16.0577763,12.525 L14.299443,11.15 Z M12.649443,9.725 C12.6827763,9.98333333 12.6911097,10.1583333 12.6911097,10.3333333 C12.6911097,10.5083333 12.674443,10.6916667 12.649443,10.9416667 L12.5327763,11.8833333 L13.274443,12.4666667 L14.174443,13.1666667 L13.5911097,14.175 L12.5327763,13.75 L11.6661097,13.4 L10.9161097,13.9666667 C10.5577763,14.2333333 10.2161097,14.4333333 9.874443,14.575 L8.99110967,14.9333333 L8.85777634,15.875 L8.69110967,17 L7.524443,17 L7.36610967,15.875 L7.23277634,14.9333333 L6.349443,14.575 C5.99110967,14.425 5.65777634,14.2333333 5.324443,13.9833333 L4.56610967,13.4 L3.68277634,13.7583333 L2.624443,14.1833333 L2.04110967,13.175 L2.94110967,12.475 L3.68277634,11.8916667 L3.56610967,10.95 C3.54110967,10.6916667 3.524443,10.5 3.524443,10.3333333 C3.524443,10.1666667 3.54110967,9.975 3.56610967,9.725 L3.68277634,8.78333333 L2.94110967,8.2 L2.04110967,7.5 L2.624443,6.49166667 L3.68277634,6.91666667 L4.549443,7.26666667 L5.299443,6.7 C5.65777634,6.43333333 5.999443,6.23333333 6.34110967,6.09166667 L7.224443,5.73333333 L7.35777634,4.79166667 L7.524443,3.66666667 L8.68277634,3.66666667 L8.84110967,4.79166667 L8.974443,5.73333333 L9.85777634,6.09166667 C10.2161097,6.24166667 10.549443,6.43333333 10.8827763,6.68333333 L11.6411097,7.26666667 L12.524443,6.90833333 L13.5827763,6.48333333 L14.1661097,7.49166667 L13.274443,8.2 L12.5327763,8.78333333 L12.649443,9.725 Z M8.10777634,7 C6.26610967,7 4.774443,8.49166667 4.774443,10.3333333 C4.774443,12.175 6.26610967,13.6666667 8.10777634,13.6666667 C9.949443,13.6666667 11.4411097,12.175 11.4411097,10.3333333 C11.4411097,8.49166667 9.949443,7 8.10777634,7 Z M8.10777634,12 C7.19110967,12 6.44110967,11.25 6.44110967,10.3333333 C6.44110967,9.41666667 7.19110967,8.66666667 8.10777634,8.66666667 C9.024443,8.66666667 9.774443,9.41666667 9.774443,10.3333333 C9.774443,11.25 9.024443,12 8.10777634,12 Z" id="Shape"></path>
                    </g>
                </g>
            </g>
        </g>
    </g>
</svg>