<svg id="Capa_1" data-name="Capa 1" xmlns="http://www.w3.org/2000/svg" viewBox="0 0 425.32 189.74"><defs><style>.cls-1{fill:#3262a4;}.cls-2{fill:#33b9b8;}.cls-3{fill:#9aad41;}.cls-4{fill:#bcd33a;}.cls-5{fill:#fb7b0d;}.cls-6{fill:#ffbd03;}.cls-7{fill:#f65741;}.cls-8{fill:#fff;}.cls-9{fill:#262626;}</style></defs><title>EC logo</title><rect class="cls-1" x="53.47" y="97.46" width="76.37" height="14.05" transform="translate(-42.87 69.54) rotate(-34.18)"/><circle class="cls-2" cx="129.02" cy="78.69" r="21.67"/><rect class="cls-3" x="52.64" y="124.09" width="76.37" height="14.05"/><circle class="cls-4" cx="129.26" cy="131.03" r="21.67"/><rect class="cls-5" x="27.7" y="87.5" width="76.37" height="14.05" transform="translate(-45.44 124.24) rotate(-70.07)"/><circle class="cls-6" cx="78.91" cy="58.63" r="21.67" transform="translate(-3.11 112.82) rotate(-70.07)"/><circle class="cls-7" cx="55.12" cy="131.11" r="21.67"/><path class="cls-8" d="M129.51,146c-9,0-15.57-6.33-15.57-15.06s6.5-14.94,15.6-14.94c7.92,0,13.87,5,14.93,12.5H135a5.73,5.73,0,0,0-5.5-3.79c-3.41,0-5.84,2.59-5.84,6.26s2.46,6.33,5.84,6.33a5.68,5.68,0,0,0,5.52-4.11h9.54c-1.1,7.65-7.12,12.81-15.06,12.81Z"/><path class="cls-9" d="M147.42,131.87c0-8.74,6.62-15,15.81-15s15.81,6.28,15.81,15-6.65,15-15.81,15S147.42,140.58,147.42,131.87Zm15.81,6.3a6.3,6.3,0,1,0-6.08-6.3,5.94,5.94,0,0,0,6.08,6.3Z"/><path class="cls-9" d="M211.39,128.78V146h-9.71V130.12c0-3.28-1.23-4.91-3.67-4.91-3,0-4.77,2.12-4.77,5.7V146h-9.71V117.78h6.81l1.33,2.9a11.72,11.72,0,0,1,8.88-3.74C207.09,116.94,211.39,121.59,211.39,128.78Z"/><path class="cls-9" d="M279.93,131.61a18.78,18.78,0,0,1-.2,2.57H258.79c.64,3.23,2.69,4.9,5.76,4.9a5.67,5.67,0,0,0,5.1-2.64h9.66c-2,6.43-7.69,10.45-14.76,10.45-8.8,0-15.31-6.43-15.31-15s6.46-15,15.31-15c9.09,0,15.38,6.49,15.38,14.76Zm-21-2.81h11.4a5.66,5.66,0,0,0-5.81-4.34A5.47,5.47,0,0,0,259,128.8Z"/><path class="cls-9" d="M298.29,146.89c-9,0-15.56-6.33-15.56-15.06s6.49-14.93,15.59-14.93c7.93,0,13.87,5,14.93,12.49h-9.46a5.71,5.71,0,0,0-5.5-3.79c-3.41,0-5.84,2.59-5.84,6.26s2.46,6.33,5.84,6.33a5.67,5.67,0,0,0,5.52-4.11h9.55c-1.1,7.65-7.13,12.81-15.07,12.81Z"/><path class="cls-9" d="M336.31,137.46V146h-6.69c-6.23,0-10-3.81-10-10.08V125.25h-5.16V123l12.63-13.45h2v8.25h7.08v7.47h-6.84v9a3,3,0,0,0,3.27,3.23Z"/><path class="cls-9" d="M245.07,128.78V146h-9.71V130.12c0-3.28-1.23-4.91-3.68-4.91-3,0-4.77,2.12-4.77,5.7V146H217.2V117.78H224l1.34,2.9a11.71,11.71,0,0,1,8.87-3.74C240.77,116.94,245.07,121.59,245.07,128.78Z"/><path class="cls-8" d="M144.7,78.56a19,19,0,0,1-.2,2.58H123.56c.64,3.23,2.69,4.9,5.76,4.9a5.64,5.64,0,0,0,5.09-2.64h9.67c-2,6.43-7.69,10.45-14.76,10.45-8.8,0-15.32-6.43-15.32-15s6.47-15,15.32-15c9.09,0,15.38,6.48,15.38,14.75Zm-21-2.8h11.4a5.66,5.66,0,0,0-5.81-4.34A5.47,5.47,0,0,0,123.73,75.76Z"/><path class="cls-9" d="M177,75.73v17.2h-9.71V77.08c0-3.28-1.23-4.91-3.67-4.91-3,0-4.78,2.11-4.78,5.7V92.93h-9.71V64.73h6.82l1.33,2.91a11.72,11.72,0,0,1,8.88-3.74C172.68,63.9,177,68.55,177,75.73Z"/><path class="cls-9" d="M201.6,84.42v8.51h-6.69c-6.23,0-10-3.81-10-10.08V72.21h-5.16V69.94l12.63-13.45h2v8.24h7.09v7.48H194.6v9a3,3,0,0,0,3.27,3.24Z"/><path class="cls-9" d="M234.92,78.56a17.56,17.56,0,0,1-.2,2.58H213.78c.64,3.23,2.69,4.9,5.76,4.9a5.67,5.67,0,0,0,5.1-2.64h9.66c-2,6.43-7.69,10.45-14.76,10.45-8.8,0-15.32-6.43-15.32-15s6.47-15,15.32-15c9.09,0,15.38,6.48,15.38,14.75Zm-21-2.8h11.4a5.66,5.66,0,0,0-5.81-4.34A5.47,5.47,0,0,0,214,75.76Z"/><path class="cls-9" d="M257.69,64.6v8.89h-3.77c-3.43,0-4.87,1.5-4.87,5.1V92.93h-9.72V64.73h6.51l1.52,3.13c2-2.3,4.41-3.26,7.76-3.26Z"/><path class="cls-9" d="M292.63,78.83c0,8.78-6.17,15-14.79,15A13.19,13.19,0,0,1,271,92v11.1h-9.6V64.73H268L269.19,67a13.08,13.08,0,0,1,8.65-3.16C286.46,63.81,292.63,70.05,292.63,78.83Zm-9.78,0a6.31,6.31,0,1,0-6.31,6.45A6.2,6.2,0,0,0,282.85,78.83Z"/><path class="cls-9" d="M315.44,64.6v8.89h-3.77c-3.44,0-4.88,1.5-4.88,5.1V92.93h-9.71V64.73h6.51l1.51,3.13c2-2.3,4.41-3.26,7.77-3.26Z"/><path class="cls-9" d="M319.11,64.73h9.72v28.2h-9.72ZM319.19,53h9.56V61.2h-9.56Z"/><path class="cls-9" d="M345.81,93.85c-7.68,0-12.35-4.06-12.44-10.17h9.35c0,2.07,1.43,3,3.27,3,1.42,0,2.77-.72,2.77-2.18,0-1.62-2.13-2.09-4.84-2.53-4.38-.71-10.17-2-10.17-8.87,0-5.65,4.81-9.3,12-9.3s11.83,3.82,11.94,9.53h-9.09c0-1.8-1.21-2.64-3-2.64-1.56,0-2.6.77-2.6,2.08,0,1.61,2.15,2,4.83,2.46,4.45.79,10.38,1.71,10.38,8.86,0,5.9-5,9.75-12.47,9.75Z"/><path class="cls-9" d="M391.87,78.56a19,19,0,0,1-.2,2.58H370.73c.64,3.23,2.69,4.9,5.76,4.9a5.64,5.64,0,0,0,5.09-2.64h9.67c-2,6.43-7.69,10.45-14.76,10.45-8.8,0-15.32-6.43-15.32-15s6.47-15,15.32-15c9.09,0,15.38,6.48,15.38,14.75Zm-21-2.8h11.4a5.66,5.66,0,0,0-5.81-4.34A5.47,5.47,0,0,0,370.9,75.76Z"/></svg>