<?xml version="1.0" encoding="UTF-8"?>
<svg width="84px" height="84px" viewBox="0 0 84 84" version="1.1" xmlns="http://www.w3.org/2000/svg" xmlns:xlink="http://www.w3.org/1999/xlink">
    <!-- Generator: Sketch 56.3 (81716) - https://sketch.com -->
    <title>Group 24</title>
    <desc>Created with Sketch.</desc>
    <defs>
        <path d="M18.89886,7.60964286 L18.89886,0.177357143 L0.318145723,0.177357143 L0.318145723,33.6226429 L37.4795743,33.6226429 L37.4795743,7.60964286 L18.89886,7.60964286 Z M7.75043144,29.9065 L4.03428858,29.9065 L4.03428858,26.1903571 L7.75043144,26.1903571 L7.75043144,29.9065 Z M7.75043144,22.4742143 L4.03428858,22.4742143 L4.03428858,18.7580714 L7.75043144,18.7580714 L7.75043144,22.4742143 Z M7.75043144,15.0419286 L4.03428858,15.0419286 L4.03428858,11.3257857 L7.75043144,11.3257857 L7.75043144,15.0419286 Z M7.75043144,7.60964286 L4.03428858,7.60964286 L4.03428858,3.8935 L7.75043144,3.8935 L7.75043144,7.60964286 Z M15.1827172,29.9065 L11.4665743,29.9065 L11.4665743,26.1903571 L15.1827172,26.1903571 L15.1827172,29.9065 Z M15.1827172,22.4742143 L11.4665743,22.4742143 L11.4665743,18.7580714 L15.1827172,18.7580714 L15.1827172,22.4742143 Z M15.1827172,15.0419286 L11.4665743,15.0419286 L11.4665743,11.3257857 L15.1827172,11.3257857 L15.1827172,15.0419286 Z M15.1827172,7.60964286 L11.4665743,7.60964286 L11.4665743,3.8935 L15.1827172,3.8935 L15.1827172,7.60964286 Z M33.7634314,29.9065 L18.89886,29.9065 L18.89886,26.1903571 L22.6150029,26.1903571 L22.6150029,22.4742143 L18.89886,22.4742143 L18.89886,18.7580714 L22.6150029,18.7580714 L22.6150029,15.0419286 L18.89886,15.0419286 L18.89886,11.3257857 L33.7634314,11.3257857 L33.7634314,29.9065 Z M30.0472886,15.0419286 L26.3311457,15.0419286 L26.3311457,18.7580714 L30.0472886,18.7580714 L30.0472886,15.0419286 Z M30.0472886,22.4742143 L26.3311457,22.4742143 L26.3311457,26.1903571 L30.0472886,26.1903571 L30.0472886,22.4742143 Z" id="path-1"></path>
    </defs>
    <g id="Welcome" stroke="none" stroke-width="1" fill="none" fill-rule="evenodd">
        <g id="Dashboard-Product-Manager" transform="translate(-909.000000, -705.000000)">
            <g id="Group-11" transform="translate(64.000000, 672.000000)">
                <g id="Group-24" transform="translate(845.000000, 33.000000)">
                    <g id="Group-2">
                        <circle id="Oval" fill="#EC4C47" cx="41.6" cy="41.6" r="41.6"></circle>
                        <g id="icons/ic/outline-contact_support-24px" transform="translate(22.100000, 24.700000)">
                            <mask id="mask-2" fill="white">
                                <use xlink:href="#path-1"></use>
                            </mask>
                            <g id="icons/ic/outline-business-24px" fill-rule="nonzero"></g>
                        </g>
                    </g>
                    <text id="$" font-family="Roboto-Black, Roboto" font-size="39" font-weight="700" fill="#FFFFFF">
                        <tspan x="30" y="55">$</tspan>
                    </text>
                </g>
            </g>
        </g>
    </g>
</svg>