<?xml version="1.0" encoding="UTF-8"?>
<svg width="17px" height="17px" viewBox="0 0 17 17" version="1.1" xmlns="http://www.w3.org/2000/svg" xmlns:xlink="http://www.w3.org/1999/xlink">
    <!-- Generator: Sketch 56.3 (81716) - https://sketch.com -->
    <title>Shape Copy</title>
    <desc>Created with Sketch.</desc>
    <g id="Welcome" stroke="none" stroke-width="1" fill="none" fill-rule="evenodd">
        <g id="Maintain---update/disable-table" transform="translate(-1310.000000, -311.000000)" fill="#9EA0A5" fill-rule="nonzero">
            <path d="M1318.5,311 C1313.81312,311 1310,314.813123 1310,319.5 C1310,324.186877 1313.81312,328 1318.5,328 C1323.18688,328 1327,324.186877 1327,319.5 C1327,314.813123 1323.18688,311 1318.5,311 Z M1311.63014,319.5 C1311.63014,317.898973 1312.18205,316.425562 1313.10355,315.256055 L1322.74371,324.896219 C1321.57444,325.817945 1320.10103,326.369863 1318.5,326.369863 C1314.71179,326.369863 1311.63014,323.288205 1311.63014,319.5 Z M1323.89645,323.743945 L1314.25605,314.103548 C1315.42556,313.182055 1316.89897,312.630137 1318.5,312.630137 C1322.28821,312.630137 1325.36986,315.711795 1325.36986,319.5 C1325.36986,321.101027 1324.81795,322.574438 1323.89645,323.743945 Z" id="Shape-Copy"></path>
        </g>
    </g>
</svg>