<?xml version="1.0" encoding="UTF-8"?>
<svg xmlns="http://www.w3.org/2000/svg" xmlns:xlink="http://www.w3.org/1999/xlink" width="20pt" height="20pt" viewBox="0 0 20 20" version="1.1">
<g id="surface1">
<path style=" stroke:none;fill-rule:nonzero;fill:rgb(100%,100%,100%);fill-opacity:1;" d="M 19.757812 0.242188 C 19.429688 -0.0820312 18.902344 -0.0820312 18.578125 0.242188 L 12.5 6.320312 L 12.5 2.5 C 12.5 2.039062 12.125 1.667969 11.667969 1.667969 C 11.207031 1.667969 10.832031 2.039062 10.832031 2.5 L 10.832031 8.332031 C 10.832031 8.332031 10.832031 8.332031 10.832031 8.335938 C 10.832031 8.359375 10.835938 8.386719 10.835938 8.414062 C 10.839844 8.429688 10.839844 8.441406 10.84375 8.453125 C 10.84375 8.46875 10.847656 8.480469 10.847656 8.496094 C 10.851562 8.511719 10.855469 8.523438 10.859375 8.539062 C 10.863281 8.550781 10.867188 8.5625 10.871094 8.574219 C 10.875 8.589844 10.878906 8.601562 10.882812 8.613281 C 10.886719 8.628906 10.890625 8.640625 10.898438 8.652344 C 10.902344 8.664062 10.90625 8.675781 10.914062 8.6875 C 10.917969 8.699219 10.925781 8.714844 10.933594 8.726562 C 10.9375 8.738281 10.945312 8.75 10.953125 8.757812 C 10.957031 8.773438 10.964844 8.785156 10.972656 8.796875 C 10.980469 8.808594 10.992188 8.820312 11 8.832031 C 11.007812 8.839844 11.015625 8.851562 11.023438 8.863281 C 11.058594 8.902344 11.097656 8.941406 11.136719 8.976562 C 11.148438 8.984375 11.160156 8.992188 11.167969 9 C 11.179688 9.007812 11.191406 9.019531 11.203125 9.027344 C 11.214844 9.035156 11.226562 9.042969 11.242188 9.046875 C 11.25 9.054688 11.261719 9.0625 11.273438 9.066406 C 11.285156 9.074219 11.300781 9.082031 11.3125 9.085938 C 11.324219 9.09375 11.335938 9.097656 11.347656 9.101562 C 11.359375 9.109375 11.371094 9.113281 11.386719 9.117188 C 11.398438 9.121094 11.410156 9.125 11.425781 9.128906 C 11.4375 9.132812 11.449219 9.136719 11.460938 9.140625 C 11.476562 9.144531 11.488281 9.148438 11.503906 9.152344 C 11.519531 9.152344 11.53125 9.15625 11.546875 9.15625 C 11.558594 9.160156 11.570312 9.160156 11.585938 9.164062 C 11.613281 9.164062 11.636719 9.167969 11.664062 9.167969 C 11.667969 9.167969 11.667969 9.167969 11.667969 9.167969 L 17.5 9.167969 C 17.960938 9.167969 18.332031 8.792969 18.332031 8.332031 C 18.332031 7.875 17.960938 7.5 17.5 7.5 L 13.679688 7.5 L 19.757812 1.421875 C 20.082031 1.097656 20.082031 0.570312 19.757812 0.242188 Z M 19.757812 0.242188 "/>
<path style=" stroke:none;fill-rule:nonzero;fill:rgb(100%,100%,100%);fill-opacity:1;" d="M 9.164062 11.585938 C 9.160156 11.570312 9.160156 11.558594 9.15625 11.546875 C 9.15625 11.53125 9.152344 11.519531 9.152344 11.503906 C 9.148438 11.488281 9.144531 11.476562 9.140625 11.460938 C 9.136719 11.449219 9.132812 11.4375 9.128906 11.425781 C 9.125 11.410156 9.121094 11.398438 9.117188 11.386719 C 9.113281 11.371094 9.109375 11.359375 9.101562 11.347656 C 9.097656 11.335938 9.09375 11.324219 9.085938 11.3125 C 9.082031 11.300781 9.074219 11.285156 9.066406 11.273438 C 9.0625 11.261719 9.054688 11.25 9.046875 11.242188 C 9.042969 11.226562 9.035156 11.214844 9.027344 11.203125 C 9.019531 11.191406 9.007812 11.179688 9 11.167969 C 8.992188 11.160156 8.984375 11.148438 8.976562 11.136719 C 8.941406 11.097656 8.902344 11.058594 8.863281 11.023438 C 8.851562 11.015625 8.839844 11.007812 8.832031 11 C 8.820312 10.992188 8.808594 10.980469 8.796875 10.972656 C 8.785156 10.964844 8.773438 10.957031 8.757812 10.953125 C 8.75 10.945312 8.738281 10.9375 8.726562 10.933594 C 8.714844 10.925781 8.699219 10.917969 8.6875 10.914062 C 8.675781 10.90625 8.664062 10.902344 8.652344 10.898438 C 8.640625 10.890625 8.628906 10.886719 8.613281 10.882812 C 8.601562 10.878906 8.589844 10.875 8.574219 10.871094 C 8.5625 10.867188 8.550781 10.863281 8.539062 10.859375 C 8.523438 10.855469 8.511719 10.851562 8.496094 10.847656 C 8.480469 10.847656 8.46875 10.84375 8.453125 10.84375 C 8.441406 10.839844 8.429688 10.839844 8.414062 10.835938 C 8.386719 10.835938 8.359375 10.832031 8.332031 10.832031 L 2.5 10.832031 C 2.039062 10.832031 1.667969 11.207031 1.667969 11.667969 C 1.667969 12.125 2.039062 12.5 2.5 12.5 L 6.320312 12.5 L 0.242188 18.578125 C -0.0820312 18.902344 -0.0820312 19.429688 0.242188 19.757812 C 0.570312 20.082031 1.097656 20.082031 1.421875 19.757812 L 7.5 13.679688 L 7.5 17.5 C 7.5 17.960938 7.875 18.332031 8.332031 18.332031 C 8.792969 18.332031 9.167969 17.960938 9.167969 17.5 L 9.167969 11.667969 C 9.167969 11.640625 9.164062 11.613281 9.164062 11.585938 Z M 9.164062 11.585938 "/>
</g>
</svg>
