<?xml version="1.0" encoding="UTF-8"?>
<svg width="21px" height="12px" viewBox="0 0 21 12" version="1.1" xmlns="http://www.w3.org/2000/svg" xmlns:xlink="http://www.w3.org/1999/xlink">
    <!-- Generator: Sketch 56.3 (81716) - https://sketch.com -->
    <title>Group</title>
    <desc>Created with Sketch.</desc>
    <g id="Page-1" stroke="none" stroke-width="1" fill="none" fill-rule="evenodd">
        <g id="0-1-1-EC-Agent/-User-Settings" transform="translate(-280.000000, -102.000000)" fill="#66788A" fill-rule="nonzero" stroke="#66788A" stroke-width="0.6">
            <g id="Group-2" transform="translate(0.000000, 64.000000)">
                <g id="Group-29" transform="translate(82.000000, 32.888889)">
                    <g id="Group" transform="translate(199.000000, 6.000000)">
                        <path d="M9.79101651,0 C5.72976943,0 2.14805945,1.90577033 0.114824702,4.81274499 C-0.0470664614,5.07131832 -0.0292236254,5.35235562 0.114824702,5.54848342 C2.14805945,8.45547319 5.72976943,10.368 9.79101651,10.368 C13.8522636,10.368 17.4339736,8.45547319 19.46723,5.54848342 C19.6198951,5.33010765 19.6259224,5.04181275 19.46723,4.81274499 C17.4339736,1.90577033 13.8522636,0 9.79101651,0 Z M9.79101651,1.51199843 C11.8417241,1.51199843 13.490141,3.14834792 13.490141,5.1839838 C13.490141,7.21963048 11.8417241,8.85597998 9.79101651,8.85597998 C7.7403089,8.85597998 6.09189196,7.21963048 6.09189196,5.1839838 C6.09189196,3.14834792 7.7403089,1.51199843 9.79101651,1.51199843 Z M5.98990492,1.95749796 C5.23974423,2.8266249 4.78631859,3.95446124 4.78631859,5.1839838 C4.78631859,6.41174812 5.24168083,7.53511975 5.98990492,8.40374125 C4.15487804,7.73528674 2.59134513,6.60539192 1.48158601,5.1839838 C2.5918456,3.76021264 4.15333311,2.62531311 5.98990492,1.95749796 Z M13.5921498,1.96423715 C15.4270897,2.63222942 16.9909272,3.76115224 18.100447,5.1839838 C16.9907096,6.60539192 15.427155,7.73526514 13.5921498,8.40371965 C14.3403522,7.53511975 14.7957144,6.41174812 14.7957144,5.1839838 C14.7957144,3.95623676 14.3403522,2.83286513 13.5921498,1.96423715 L13.5921498,1.96423715 Z M9.79101651,3.02399685 C8.59700438,3.02399685 7.61506089,3.99873903 7.61506089,5.1839838 C7.61506089,6.36923937 8.59700438,7.34398155 9.79101651,7.34398155 C10.9850286,7.34398155 11.9669721,6.36923937 11.9669721,5.1839838 C11.9669721,3.99873903 10.9850286,3.02399685 9.79101651,3.02399685 Z M9.79101651,4.3199955 C10.2794533,4.3199955 10.6613988,4.69915071 10.6613988,5.1839838 C10.6613988,5.66883849 10.2794533,6.0479829 9.79101651,6.0479829 C9.30257975,6.0479829 8.92063426,5.66883849 8.92063426,5.1839838 C8.92063426,4.69915071 9.30257975,4.3199955 9.79101651,4.3199955 Z" id="Shape"></path>
                    </g>
                </g>
            </g>
        </g>
    </g>
</svg>