<?xml version="1.0" encoding="UTF-8"?>
<svg xmlns="http://www.w3.org/2000/svg" xmlns:xlink="http://www.w3.org/1999/xlink" width="20pt" height="20pt" viewBox="0 0 20 20" version="1.1">
<g id="surface1">
<path style=" stroke:none;fill-rule:nonzero;fill:rgb(0%,36.862745%,72.156863%);fill-opacity:1;" d="M 13.527344 20 L 3.113281 20 C 1.847656 20 0.820312 18.972656 0.820312 17.707031 L 0.820312 6.457031 C 0.820312 5.195312 1.847656 4.167969 3.113281 4.167969 L 3.527344 4.167969 C 3.875 4.167969 4.152344 4.445312 4.152344 4.792969 C 4.152344 5.136719 3.875 5.417969 3.527344 5.417969 L 3.113281 5.417969 C 2.539062 5.417969 2.070312 5.882812 2.070312 6.457031 L 2.070312 17.707031 C 2.070312 18.28125 2.539062 18.75 3.113281 18.75 L 13.527344 18.75 C 14.101562 18.75 14.570312 18.28125 14.570312 17.707031 L 14.570312 17.292969 C 14.570312 16.945312 14.851562 16.667969 15.195312 16.667969 C 15.539062 16.667969 15.820312 16.945312 15.820312 17.292969 L 15.820312 17.707031 C 15.820312 18.972656 14.792969 20 13.527344 20 Z M 13.527344 20 "/>
<path style=" stroke:none;fill-rule:nonzero;fill:rgb(0%,36.862745%,72.156863%);fill-opacity:1;" d="M 16.863281 15 L 8.113281 15 C 6.847656 15 5.820312 13.972656 5.820312 12.707031 L 5.820312 2.292969 C 5.820312 1.027344 6.847656 0 8.113281 0 L 16.863281 0 C 18.125 0 19.152344 1.027344 19.152344 2.292969 L 19.152344 12.707031 C 19.152344 13.972656 18.125 15 16.863281 15 Z M 8.113281 1.25 C 7.539062 1.25 7.070312 1.71875 7.070312 2.292969 L 7.070312 12.707031 C 7.070312 13.28125 7.539062 13.75 8.113281 13.75 L 16.863281 13.75 C 17.4375 13.75 17.902344 13.28125 17.902344 12.707031 L 17.902344 2.292969 C 17.902344 1.71875 17.4375 1.25 16.863281 1.25 Z M 8.113281 1.25 "/>
</g>
</svg>
