<?xml version="1.0" encoding="UTF-8"?>
<svg width="15px" height="15px" viewBox="0 0 15 15" version="1.1" xmlns="http://www.w3.org/2000/svg" xmlns:xlink="http://www.w3.org/1999/xlink">
    <!-- Generator: Sketch 56.3 (81716) - https://sketch.com -->
    <title>Group</title>
    <desc>Created with Sketch.</desc>
    <g id="Welcome" stroke="none" stroke-width="1" fill="none" fill-rule="evenodd">
        <g id="Maintain---hover-agent---create" transform="translate(-1337.000000, -310.000000)" fill="#9EA0A5" fill-rule="nonzero">
            <g id="Group-17" transform="translate(1276.000000, 253.000000)">
                <g id="Group-16" transform="translate(1.000000, 56.000000)">
                    <g id="Group" transform="translate(60.000000, 1.000000)">
                        <path d="M7.64335714,3.68164286 C7.57071429,3.5565 7.43271429,3.47892857 7.28292857,3.47892857 C7.13335714,3.47892857 6.99514286,3.5565 6.92207143,3.68228571 L4.06907143,8.62478571 C3.99557143,8.75292857 3.99557143,8.91192857 4.06907143,9.04007143 C4.143,9.16885714 4.28121429,9.24878571 4.42971429,9.24878571 L6.06064286,9.24878571 L6.06064286,14.0050714 C6.06064286,14.2345714 6.24728571,14.4214286 6.47678571,14.4214286 L8.08928571,14.4214286 C8.31878571,14.4214286 8.50542857,14.2345714 8.50542857,14.0050714 L8.50542857,9.24835714 L10.1477143,9.24878571 C10.3776429,9.24878571 10.5572143,9.06578571 10.5572143,8.83242857 C10.5572143,8.73621429 10.5250714,8.64514286 10.4652857,8.57142857 L7.64335714,3.68164286 Z" id="Path"></path>
                        <rect id="Rectangle" x="0.0289285714" y="0.150214286" width="14.5135714" height="2.1855" rx="1"></rect>
                    </g>
                </g>
            </g>
        </g>
    </g>
</svg>