<?xml version="1.0" encoding="UTF-8"?>
<svg width="20px" height="13px" viewBox="0 0 20 13" version="1.1" xmlns="http://www.w3.org/2000/svg" xmlns:xlink="http://www.w3.org/1999/xlink">
    <!-- Generator: Sketch 56.3 (81716) - https://sketch.com -->
    <title>Graph</title>
    <desc>Created with Sketch.</desc>
    <g id="Page-1" stroke="none" stroke-width="1" fill="none" fill-rule="evenodd">
        <g id="0-1-1-EC-Agent/-User-Settings" transform="translate(-793.000000, -101.000000)" fill="#66788A" fill-rule="nonzero">
            <g id="Group-2" transform="translate(0.000000, 64.000000)">
                <g id="Group-29" transform="translate(82.000000, 32.888889)">
                    <g id="Group-14" transform="translate(711.000000, 0.000000)">
                        <path d="M19.53125,5.46875 C19.8437516,5.76823066 20,6.13281035 20,6.5625 C20,6.99218965 19.8470067,7.36002451 19.5410156,7.66601562 C19.2350245,7.97200674 18.8671896,8.125 18.4375,8.125 C18.2161447,8.125 18.0078135,8.07942754 17.8125,7.98828125 L13.75,11.484375 C13.75,11.484375 13.75,11.4941405 13.75,11.5136719 C13.75,11.5332032 13.75,11.5494791 13.75,11.5625 C13.75,11.6796881 13.7369793,11.7968744 13.7109375,11.9140625 C13.6848957,12.0312506 13.6458336,12.1419266 13.59375,12.2460938 C13.5416664,12.3502609 13.4798181,12.4479162 13.4082031,12.5390625 C13.3365882,12.6302088 13.2552088,12.7115882 13.1640625,12.7832031 C13.0729162,12.8548181 12.9752609,12.9166664 12.8710938,12.96875 C12.7669266,13.0208336 12.6562506,13.0598957 12.5390625,13.0859375 C12.4218744,13.1119793 12.3046881,13.125 12.1875,13.125 C11.9791656,13.125 11.7773447,13.0826827 11.5820312,12.9980469 C11.3867178,12.913411 11.2207038,12.8027351 11.0839844,12.6660156 C10.9472649,12.5292962 10.836589,12.3665374 10.7519531,12.1777344 C10.6673173,11.9889313 10.625,11.7903656 10.625,11.5820312 L7.71484375,10.1171875 C7.55859297,10.2734383 7.38281348,10.397135 7.1875,10.4882812 C6.99218652,10.5794275 6.78385527,10.625 6.5625,10.625 C6.41927012,10.625 6.26302168,10.5989586 6.09375,10.546875 L3.0078125,14.1015625 C3.08593789,14.296876 3.125,14.4921865 3.125,14.6875 C3.125,15.1171896 2.97200674,15.4850245 2.66601562,15.7910156 C2.36002451,16.0970067 1.99218965,16.25 1.5625,16.25 C1.13281035,16.25 0.764975488,16.0970067 0.458984375,15.7910156 C0.152993262,15.4850245 0,15.1171896 0,14.6875 C0,14.2578104 0.152993262,13.8899755 0.458984375,13.5839844 C0.764975488,13.2779933 1.13281035,13.125 1.5625,13.125 C1.74479258,13.125 1.92708242,13.1575518 2.109375,13.2226562 L5.15625,9.7265625 C5.05208281,9.50520723 5,9.28385527 5,9.0625 C5,8.77604023 5.06835869,8.512371 5.20507812,8.27148438 C5.34179756,8.03059775 5.53059775,7.84179756 5.77148438,7.70507812 C6.012371,7.56835869 6.27604023,7.5 6.5625,7.5 C6.97916875,7.5 7.33398291,7.63997256 7.62695312,7.91992188 C7.91992334,8.19987119 8.07942695,8.54166465 8.10546875,8.9453125 L11.09375,10.4492188 C11.4062516,10.1497381 11.7708313,10 12.1875,10 C12.5390643,10 12.8645818,10.1171863 13.1640625,10.3515625 L16.9726562,7.0703125 C16.9075518,6.88801992 16.875,6.71875078 16.875,6.5625 C16.875,6.13281035 17.0279933,5.76497549 17.3339844,5.45898438 C17.6399755,5.15299326 18.0078104,5 18.4375,5 C18.8671896,5 19.2317693,5.15624844 19.53125,5.46875 Z" id="Graph"></path>
                    </g>
                </g>
            </g>
        </g>
    </g>
</svg>