<?xml version="1.0" encoding="UTF-8"?>
<svg width="17px" height="17px" viewBox="0 0 17 17" version="1.1" xmlns="http://www.w3.org/2000/svg" xmlns:xlink="http://www.w3.org/1999/xlink">
    <!-- Generator: Sketch 56.3 (81716) - https://sketch.com -->
    <title>Group</title>
    <desc>Created with Sketch.</desc>
    <g id="Page-1" stroke="none" stroke-width="1" fill="none" fill-rule="evenodd">
        <g id="0-1-1-EC-Agent/-User-Settings" transform="translate(-445.000000, -98.000000)" fill="#66788A" fill-rule="nonzero" stroke="#66788A" stroke-width="0.8">
            <g id="Group-2" transform="translate(0.000000, 64.000000)">
                <g id="Group-29" transform="translate(82.000000, 32.888889)">
                    <g id="Group-5" transform="translate(364.000000, 0.000000)">
                        <g id="Group" transform="translate(0.000000, 2.000000)">
                            <path d="M3.1664,15.2784 C2.848,15.2784 2.5264,15.2256 2.2128,15.1152 C2.0496,15.0576 1.9296,14.9232 1.8912,14.7552 C1.8528,14.5856 1.9024,14.4112 2.024,14.288 L3.4608,12.8416 C3.5248,12.776 3.5504,12.6688 3.4704,12.5904 L2.7632,11.8496 C2.7408,11.8272 2.7088,11.8144 2.6688,11.8144 L2.6688,11.8144 C2.616,11.8144 2.5568,11.84 2.5136,11.8832 L1.0784,13.3264 C0.9536,13.4528 0.7744,13.5024 0.6016,13.4592 C0.4304,13.4176 0.296,13.2912 0.2448,13.1232 C-0.0784,12.0832 0.2016,10.952 0.976,10.1728 C1.7824,9.3616 3.032,9.0656 4.0848,9.4144 L9.4144,4.0848 C9.0592,3.0128 9.3488,1.7488 10.1536,0.9376 C10.9456,0.1408 12.0928,-0.1264 13.1456,0.2432 C13.3088,0.3008 13.4288,0.4352 13.4672,0.6048 C13.5056,0.7744 13.456,0.9488 13.3328,1.072 L11.8864,2.5184 C11.8144,2.5904 11.8144,2.696 11.8864,2.7696 L12.5888,3.472 C12.6256,3.5088 12.672,3.528 12.72,3.528 C12.752,3.528 12.8,3.5184 12.8432,3.4752 L14.2784,2.032 C14.4032,1.9056 14.5824,1.856 14.7552,1.8992 C14.9264,1.9408 15.0608,2.0672 15.112,2.2352 C15.4352,3.2752 15.1552,4.4064 14.3808,5.1856 C13.5744,5.9968 12.3248,6.2928 11.272,5.944 L5.944,11.2736 C6.2992,12.3456 6.0096,13.6096 5.2048,14.4208 C4.648,14.9808 3.9168,15.2784 3.1664,15.2784 Z M2.64,14.576 C3.4032,14.7648 4.1776,14.5456 4.7504,13.9696 C5.4192,13.2976 5.64,12.1824 5.2768,11.3168 C5.2272,11.1968 5.2528,11.0592 5.3456,10.9664 L10.9664,5.3456 C11.0592,5.2528 11.1984,5.2256 11.3184,5.2768 C12.1744,5.6416 13.248,5.4192 13.928,4.7344 C14.4784,4.1808 14.7104,3.4032 14.5616,2.6576 L13.2976,3.928 C13.144,4.0832 12.9392,4.168 12.7216,4.168 C12.5024,4.168 12.2944,4.0816 12.1376,3.9232 L11.4352,3.2208 C11.1136,2.896 11.1136,2.3904 11.4352,2.0656 L12.7184,0.7824 C11.9568,0.5952 11.1808,0.8144 10.6096,1.3888 C9.9408,2.0608 9.72,3.176 10.0832,4.0416 C10.1328,4.1616 10.1072,4.2992 10.0144,4.392 L4.3936,10.0144 C4.3008,10.1072 4.1616,10.1344 4.0416,10.0832 C3.1856,9.7184 2.112,9.9408 1.432,10.6256 C0.8816,11.1792 0.6496,11.9568 0.7984,12.7024 L2.0624,11.432 C2.2256,11.2672 2.448,11.1744 2.6704,11.1744 C2.6704,11.1744 2.6704,11.1744 2.6704,11.1744 C2.88,11.1744 3.0752,11.256 3.2224,11.4032 L3.9296,12.144 C4.2432,12.4608 4.24,12.9664 3.9152,13.2928 L2.64,14.576 Z" id="Shape"></path>
                            <path d="M6.2704,8 C6.1888,8 6.1072,7.9696 6.0448,7.9072 L5.6384,7.5024 C5.3504,7.216 5.3392,6.7552 5.6096,6.4544 L6.3856,5.592 C6.5248,5.4368 6.7248,5.3456 6.9328,5.3408 C7.144,5.336 7.3456,5.4176 7.4928,5.5664 L7.9056,5.984 C8.0304,6.1088 8.0288,6.312 7.904,6.4368 C7.7792,6.5616 7.576,6.56 7.4512,6.4352 L7.0384,6.0176 C7.0064,5.9856 6.9712,5.9824 6.9488,5.9808 C6.9296,5.9808 6.8912,5.9872 6.8608,6.0208 L6.0864,6.88 C6.0432,6.928 6.0448,7.0016 6.0912,7.048 L6.4976,7.4528 C6.6224,7.5776 6.6224,7.7808 6.4976,7.9056 C6.4352,7.968 6.3536,8 6.2704,8 Z" id="Path"></path>
                            <path d="M13.6752,15.176 C13.4544,15.176 13.2448,15.0896 13.0896,14.9312 L7.4544,9.312 C7.3296,9.1872 7.3296,8.984 7.4544,8.8592 C7.5792,8.7344 7.7824,8.7344 7.9072,8.8592 L13.5424,14.48 C13.616,14.5536 13.7376,14.552 13.808,14.4816 L14.4768,13.784 C14.5552,13.704 14.5552,13.6032 14.4816,13.528 L8.8848,7.8784 C8.76,7.7536 8.7616,7.5504 8.8864,7.4256 C9.0112,7.3008 9.2144,7.3024 9.3392,7.4272 L14.9328,13.0752 C15.2544,13.3984 15.2544,13.9056 14.9328,14.2288 L14.264,14.9264 C14.1056,15.0896 13.896,15.176 13.6752,15.176 Z" id="Path"></path>
                            <path d="M6.2352,6.5552 C6.1536,6.5552 6.072,6.5232 6.0096,6.4608 L2.2944,2.7456 L2.2656,2.776 C2.1456,2.8976 1.9504,2.9024 1.824,2.7872 L1.104,2.136 C1.056,2.0928 1.024,2.0368 1.008,1.9744 L0.8368,1.2704 C0.8112,1.1648 0.8416,1.0512 0.9184,0.9728 C0.9952,0.8944 1.1072,0.8608 1.2144,0.8832 L1.928,1.0352 C1.9888,1.048 2.0432,1.0784 2.088,1.1216 L2.7824,1.816 C2.8432,1.8768 2.8768,1.96 2.8768,2.0464 C2.8768,2.1328 2.84,2.2144 2.7776,2.2736 L2.752,2.2976 L6.464,6.0096 C6.5888,6.1344 6.5888,6.3376 6.464,6.4624 C6.4,6.5248 6.3184,6.5552 6.2352,6.5552 Z M1.6064,1.728 L2.0256,2.1072 L2.0656,2.0672 C2.0672,2.0656 2.0672,2.0656 2.0688,2.064 C2.0704,2.0624 2.072,2.0608 2.0736,2.0592 L2.0976,2.0352 L1.7024,1.64 L1.5792,1.6144 L1.6064,1.728 Z" id="Shape"></path>
                        </g>
                    </g>
                </g>
            </g>
        </g>
    </g>
</svg>