<?xml version="1.0" encoding="UTF-8"?>
<svg width="52px" height="52px" viewBox="0 0 52 52" version="1.1" xmlns="http://www.w3.org/2000/svg" xmlns:xlink="http://www.w3.org/1999/xlink">
    <!-- Generator: Sketch 56.3 (81716) - https://sketch.com -->
    <title>Group 36</title>
    <desc>Created with Sketch.</desc>
    <g id="Welcome" stroke="none" stroke-width="1" fill="none" fill-rule="evenodd">
        <g id="Dashboard-Ops" transform="translate(-387.000000, -214.000000)">
            <g id="Group-45" transform="translate(64.000000, 172.000000)">
                <g id="Group-36" transform="translate(323.000000, 42.000000)">
                    <g id="Group-27" fill="#3B73B9">
                        <circle id="Oval" cx="25.6" cy="25.6" r="25.6"></circle>
                    </g>
                    <g id="noun_Announcement_1634592" transform="translate(10.400000, 9.600000)" fill="#FFFFFF" fill-rule="nonzero">
                        <g id="Group">
                            <path d="M6.732,30.78 C7.01771872,30.78 7.29095261,30.6628998 7.488,30.456 L10.296,27.684 L12.204,26.424 L15.084,29.304 C15.2756374,29.5185529 15.5524704,29.6371956 15.84,29.628 C16.1248708,29.6239424 16.3965991,29.5074874 16.596,29.304 L22.14,23.76 C22.3434874,23.5605991 22.4599424,23.2888708 22.464,23.004 C22.4655236,22.7074368 22.3489434,22.4224631 22.14,22.212 L20.808,20.88 L24.408,18.54 L24.984,19.152 C25.2071188,19.3360583 25.4867694,19.4377494 25.776,19.44 C26.0533586,19.4324613 26.3199264,19.3309117 26.532,19.152 C26.9303392,18.712877 26.9303392,18.043123 26.532,17.604 L13.5,4.572 C13.07278,4.17856841 12.41522,4.17856841 11.988,4.572 C11.7790689,4.77531889 11.6612091,5.05446822 11.6612091,5.346 C11.6612091,5.63753178 11.7790689,5.91668111 11.988,6.12 L12.564,6.696 L3.42,20.808 L0.648,23.616 C0.441100236,23.8130474 0.324,24.0862813 0.324,24.372 C0.324,24.6577187 0.441100236,24.9309526 0.648,25.128 L5.976,30.456 C6.17304739,30.6628998 6.44628128,30.78 6.732,30.78 Z M19.836,23.004 L15.84,27 L14.076,25.236 L18.936,22.068 L19.836,23.004 Z M22.86,16.992 L9.792,25.416 L5.688,21.312 L14.112,8.244 L22.86,16.992 Z M4.284,23.004 L8.1,26.82 L6.732,28.188 L2.916,24.372 L4.284,23.004 Z" id="Shape"></path>
                            <path d="M21.492,9.82801475 C21.7768708,9.82394239 22.0485991,9.7074874 22.248,9.504 L26.316,5.436 C26.5925236,5.15947643 26.7005183,4.75643455 26.5993037,4.37869634 C26.498089,4.00095812 26.2030419,3.70591099 25.8253037,3.60469634 C25.4475654,3.50348169 25.0445236,3.61147643 24.768,3.888 L20.7,7.956 C20.3016608,8.39512299 20.3016608,9.06487701 20.7,9.504 C20.9104631,9.71294344 21.1954368,9.82952357 21.492,9.82801475 Z" id="Path"></path>
                            <path d="M18.54,7.092 C18.65055,7.15020242 18.7755683,7.17520608 18.9,7.164 C19.3671085,7.17510064 19.7883851,6.88456509 19.944,6.444 L21.708,1.62 C21.8629123,1.07873974 21.5760488,0.509272917 21.0489026,0.311593074 C20.5217563,0.113913231 19.9311824,0.354341044 19.692,0.864 L17.892,5.724 C17.7888972,5.99093056 17.7998779,6.28848045 17.9223751,6.54708549 C18.0448722,6.80569054 18.268147,7.0026801 18.54,7.092 Z" id="Path"></path>
                            <path d="M28.476,8.388 L23.616,10.152 C23.1554857,10.3676453 22.8989758,10.8673314 22.9921756,11.3672215 C23.0853755,11.8671116 23.5047163,12.2407916 24.012,12.276 L24.372,12.204 L29.196,10.404 C29.467853,10.3146801 29.6911278,10.1176905 29.8136249,9.85908549 C29.9361221,9.60048045 29.9471028,9.30293056 29.844,9.036 C29.7546801,8.76414697 29.5576905,8.54087219 29.2990855,8.41837507 C29.0404804,8.29587794 28.7429306,8.28489719 28.476,8.388 Z" id="Path"></path>
                        </g>
                    </g>
                </g>
            </g>
        </g>
    </g>
</svg>