<?xml version="1.0" encoding="UTF-8"?>
<svg width="64px" height="64px" viewBox="0 0 64 64" version="1.1" xmlns="http://www.w3.org/2000/svg" xmlns:xlink="http://www.w3.org/1999/xlink">
    <!-- Generator: Sketch 56.3 (81716) - https://sketch.com -->
    <title>Group 17</title>
    <desc>Created with Sketch.</desc>
    <g id="Welcome" stroke="none" stroke-width="1" fill="none" fill-rule="evenodd">
        <g id="Dashboard-Product-Manager" transform="translate(-856.000000, -445.000000)">
            <g id="Group-46" transform="translate(730.000000, 365.000000)">
                <g id="Group-17" transform="translate(126.000000, 80.000000)">
                    <g id="Group-3" fill="#47B881">
                        <circle id="Oval" cx="32" cy="32" r="32"></circle>
                    </g>
                    <g id="noun_connections_1207551" transform="translate(12.000000, 11.000000)" fill="#FFFFFF" fill-rule="nonzero">
                        <path d="M26,21.125 C26,18.0736268 23.5263732,15.6 20.475,15.6 C17.4236268,15.6 14.95,18.0736268 14.95,21.125 C14.95,24.1763732 17.4236268,26.65 20.475,26.65 C23.5245192,26.6455286 25.9955286,24.1745192 26,21.125 L26,21.125 Z M20.475,24.214291 C18.7688317,24.214291 17.385709,22.8311683 17.385709,21.125 C17.385709,19.4188317 18.7688317,18.035709 20.475,18.035709 C22.1811683,18.035709 23.564291,19.4188317 23.564291,21.125 C23.5620546,22.8302411 22.1802411,24.2120546 20.475,24.214291 Z" id="Shape"></path>
                        <path d="M20.8,13 C21.4829962,13 22.036674,12.4316432 22.036674,11.7305395 L22.036674,7.79944332 C23.8498944,7.17705626 24.9561408,5.29705227 24.6489952,3.35994936 C24.3418496,1.42284645 22.7119056,0 20.8,0 C18.8880944,0 17.2581504,1.42284645 16.9510048,3.35994936 C16.6438592,5.29705227 17.7501056,7.17705626 19.563326,7.79944332 L19.563326,11.7305395 C19.563326,12.4316432 20.1170038,13 20.8,13 L20.8,13 Z M20.8,2.54387667 C21.5877223,2.54387667 22.2262973,3.19938157 22.2262973,4.00798783 C22.2262973,4.8165941 21.5877223,5.47209899 20.8,5.47209899 C20.0122777,5.47209899 19.3737027,4.8165941 19.3737027,4.00798783 C19.3737027,3.19938157 20.0122777,2.54387667 20.8,2.54387667 Z" id="Shape"></path>
                        <path d="M22.036674,33.8005567 L22.036674,29.8694605 C22.036674,29.1683568 21.4829962,28.6 20.8,28.6 C20.1170038,28.6 19.563326,29.1683568 19.563326,29.8694605 L19.563326,33.8005567 C17.7501056,34.4229437 16.6438592,36.3029477 16.9510048,38.2400506 C17.2581504,40.1771535 18.8880944,41.6 20.8,41.6 C22.7119056,41.6 24.3418496,40.1771535 24.6489952,38.2400506 C24.9561408,36.3029477 23.8498944,34.4229437 22.036674,33.8005567 L22.036674,33.8005567 Z M20.8,39.0561233 C20.0122777,39.0561233 19.3737027,38.4006184 19.3737027,37.5920122 C19.3737027,36.7834059 20.0122777,36.127901 20.8,36.127901 C21.5877223,36.127901 22.2262973,36.7834059 22.2262973,37.5920122 C22.2262973,38.4006184 21.5877223,39.0561233 20.8,39.0561233 L20.8,39.0561233 Z" id="Shape"></path>
                        <path d="M31.8815522,12.9331088 C33.6093548,12.9343135 35.1281195,11.7884049 35.6016615,10.1262845 C36.0752035,8.46416422 35.3885018,6.68955285 33.9196332,5.77949644 C32.4507645,4.86944002 30.5565095,5.04498664 29.2797864,6.20948577 C28.0030632,7.3739849 27.6539814,9.2445856 28.4247346,10.7913931 L25.7401847,13.4767122 C25.4122313,13.7823899 25.277234,14.2427524 25.3881523,14.6771992 C25.4990706,15.111646 25.8382141,15.4508866 26.2725364,15.5618367 C26.7068588,15.6727868 27.1670894,15.5377508 27.4726796,15.2097035 L30.1572294,12.5243844 C30.692658,12.7922131 31.2829088,12.932123 31.8815522,12.9331088 L31.8815522,12.9331088 Z M30.8804643,8.06928891 C31.2846583,7.6644536 31.8928948,7.54312506 32.4214141,7.76190654 C32.9499334,7.98068801 33.2945888,8.49646784 33.2945888,9.06861997 C33.2945888,9.64077209 32.9499334,10.1565519 32.4214141,10.3753334 C31.8928948,10.5941149 31.2846583,10.4727863 30.8804643,10.067951 C30.6130928,9.80496044 30.4614896,9.44625062 30.4591626,9.0711676 C30.4568887,8.69608459 30.6040805,8.33554115 30.8682061,8.06928891 L30.8804643,8.06928891 Z" id="Shape"></path>
                        <path d="M15.2403743,26.3596411 C14.7602762,25.8801196 13.9825166,25.8801196 13.5024185,26.3596411 L10.8053079,29.052768 C9.31454468,28.3113799 7.51702812,28.6032827 6.33744991,29.7783136 L6.33744991,29.7783136 C4.93597244,31.1781167 4.81474576,33.4092038 6.05630216,34.9526291 C7.29785857,36.4960544 9.50302592,36.8555921 11.1705049,35.7864655 C12.8379839,34.7173388 13.4316643,32.5632822 12.5473626,30.7907981 L15.2403743,28.0976713 C15.7198752,27.6175527 15.7198752,26.8397597 15.2403743,26.3596411 L15.2403743,26.3596411 Z M10.0797933,33.5249163 C9.72634875,33.904824 9.19365774,34.0613773 8.69087678,33.9331068 C8.18809582,33.8048362 7.79549772,33.4122213 7.6672327,32.9094189 C7.53896767,32.4066164 7.69551421,31.8739026 8.07540568,31.5204429 L8.07540568,31.5204429 C8.63429982,31.000435 9.50451138,31.0161221 10.044302,31.5559358 C10.5840925,32.0957495 10.599779,32.9659982 10.0797933,33.5249163 Z" id="Shape"></path>
                        <path d="M30.1235355,29.032071 L27.4234347,26.3310203 C26.9376471,25.8781995 26.1806326,25.8915608 25.7111158,26.3612428 C25.241599,26.8309248 25.2282423,27.5882057 25.6809039,28.0741642 L28.3810047,30.7752148 C27.6376968,32.2704282 27.9303554,34.0733106 29.1084292,35.25641 L29.1084292,35.25641 C30.5110797,36.6640956 32.7490508,36.7873148 34.297662,35.542121 C35.8462732,34.2969273 36.2071662,32.0840362 35.1344724,30.4110418 C34.0617786,28.7380475 31.9007016,28.1433359 30.1235355,29.032071 Z M32.860624,33.5132662 C32.4540886,33.9204732 31.8423288,34.0425125 31.3107479,33.8224493 C30.779167,33.6023862 30.4325151,33.0835847 30.4325151,32.5080807 C30.4325151,31.9325767 30.779167,31.4137752 31.3107479,31.193712 C31.8423288,30.9736488 32.4540886,31.0956882 32.860624,31.5028952 C33.128699,31.7692269 33.2797983,32.1313324 33.2805723,32.5092831 C33.2813404,32.8872338 33.1317198,33.2499533 32.8647338,33.5173774 L32.860624,33.5132662 Z" id="Shape"></path>
                        <path d="M11.8437012,6.34191386 C10.4403345,4.93602708 8.20255236,4.81326039 6.65368719,6.05718515 C5.10482202,7.3011099 4.74277264,9.51185358 5.81399806,11.1844897 C6.88522348,12.8571258 9.04536717,13.4539681 10.8239477,12.5687263 L13.5254721,15.2690667 C14.0115158,15.7217685 14.7689294,15.7084106 15.2386938,15.2388521 C15.7084582,14.7692936 15.7218219,14.012212 15.2689216,13.5263812 L12.5715092,10.8260408 C13.3211762,9.33076648 13.0278575,7.52358899 11.8437012,6.34191386 L11.8437012,6.34191386 Z M8.0895281,10.0944417 C7.68224969,9.68787026 7.56018896,9.07605609 7.78029074,8.54442805 C8.00039251,8.01280001 8.51928496,7.66611728 9.0948899,7.66611728 C9.67049484,7.66611728 10.1893873,8.01280001 10.4094891,8.54442805 C10.6295908,9.07605609 10.5075301,9.68787026 10.1002517,10.0944417 C9.83497389,10.3650711 9.47188119,10.5175773 9.09283395,10.5175773 C8.7137867,10.5175773 8.350694,10.3650711 8.08541619,10.0944417 L8.0895281,10.0944417 Z" id="Shape"></path>
                        <path d="M36.9488575,16.9000097 C35.2219287,16.8962729 33.6864709,17.9702662 33.1375767,19.565863 L29.2204269,19.565863 C28.5187895,19.565863 27.95,20.120138 27.95,20.8038709 C27.95,21.4876037 28.5187895,22.0418787 29.2204269,22.0418787 L33.1545157,22.0418787 C33.8045791,23.9270452 35.8062419,25.0335269 37.8002488,24.609953 C39.7942557,24.1863791 41.1417461,22.3684586 40.9276889,20.3906742 C40.7136317,18.4128898 39.0066089,16.9089046 36.9657966,16.9000097 L36.9488575,16.9000097 Z M36.9488575,22.2317066 C36.1396357,22.2317066 35.4836318,21.5924428 35.4836318,20.8038709 C35.4836318,20.015299 36.1396357,19.3760352 36.9488575,19.3760352 C37.7580794,19.3760352 38.4140833,20.015299 38.4140833,20.8038709 C38.4140833,21.5924428 37.7580794,22.2317066 36.9488575,22.2317066 Z" id="Shape"></path>
                        <path d="M1.60181522e-05,20.8 C-0.00550636053,22.7105235 1.4174702,24.3419571 3.35728748,24.649072 C5.29710475,24.9561869 7.17908251,23.8479988 7.79747297,22.034503 L11.7300585,22.034503 C12.4314278,22.034503 13,21.4817972 13,20.8 C13,20.1182028 12.4314278,19.565497 11.7300585,19.565497 L7.79747297,19.565497 C7.17908251,17.7520012 5.29710475,16.6438131 3.35728748,16.950928 C1.4174702,17.2580429 -0.00550636053,18.8894765 1.60181522e-05,20.8 Z M5.46924688,20.8 C5.46924688,21.5863394 4.81349363,22.2237934 4.00458101,22.2237934 C3.19566839,22.2237934 2.53991514,21.5863394 2.53991514,20.8 C2.53991514,20.0136606 3.19566839,19.3762066 4.00458101,19.3762066 C4.81184,19.3784746 5.46501711,20.0152648 5.46501374,20.8 L5.46924688,20.8 Z" id="Shape"></path>
                        <path d="M20.9529412,19.5 L19.9970588,19.5 C19.3635557,19.5 18.85,20.0820298 18.85,20.8 C18.85,21.5179702 19.3635557,22.1 19.9970588,22.1 L20.9529412,22.1 C21.5864443,22.1 22.1,21.5179702 22.1,20.8 C22.1,20.0820298 21.5864443,19.5 20.9529412,19.5 L20.9529412,19.5 Z" id="Path"></path>
                    </g>
                </g>
            </g>
        </g>
    </g>
</svg>