<?xml version="1.0" encoding="UTF-8"?>
<svg width="52px" height="52px" viewBox="0 0 52 52" version="1.1" xmlns="http://www.w3.org/2000/svg" xmlns:xlink="http://www.w3.org/1999/xlink">
    <!-- Generator: Sketch 56.3 (81716) - https://sketch.com -->
    <title>Group 37</title>
    <desc>Created with Sketch.</desc>
    <g id="Welcome" stroke="none" stroke-width="1" fill="none" fill-rule="evenodd">
        <g id="Dashboard-Ops" transform="translate(-832.000000, -214.000000)">
            <g id="Group-45" transform="translate(64.000000, 172.000000)">
                <g id="Group-37" transform="translate(768.000000, 42.000000)">
                    <g id="Group-43">
                        <g id="Group-2" fill="#EC4C47">
                            <circle id="Oval" cx="25.6" cy="25.6" r="25.6"></circle>
                        </g>
                        <g id="noun_bolt_1103030" transform="translate(16.000000, 9.600000)" fill="#FFFFFF" fill-rule="nonzero">
                            <path d="M18.36,13.284 C18.18,12.924 17.82,12.708 17.388,12.708 L11.844,12.708 L13.608,1.26 C13.68,0.756 13.392,0.252 12.924,0.072 C12.456,-0.108 11.916,0.072 11.628,0.504 L0.396,18.072 C0.18,18.396 0.18,18.828 0.36,19.188 C0.54,19.548 0.9,19.764 1.296,19.764 L6.732,19.764 L3.672,31.068 C3.528,31.572 3.78,32.112 4.248,32.328 C4.392,32.4 4.572,32.436 4.716,32.436 C5.04,32.436 5.4,32.292 5.58,32.004 L18.288,14.4 C18.504,14.076 18.54,13.644 18.36,13.284 Z M7.308,25.92 L9.18,18.936 C9.252,18.612 9.216,18.252 9,18 C8.784,17.748 8.496,17.568 8.136,17.568 L3.276,17.568 L10.692,5.976 L9.504,13.608 C9.468,13.932 9.54,14.22 9.756,14.472 C9.972,14.724 10.26,14.832 10.584,14.832 L15.3,14.832 L7.308,25.92 Z" id="Shape"></path>
                        </g>
                    </g>
                </g>
            </g>
        </g>
    </g>
</svg>