<?xml version="1.0" encoding="UTF-8"?>
<svg width="52px" height="52px" viewBox="0 0 52 52" version="1.1" xmlns="http://www.w3.org/2000/svg" xmlns:xlink="http://www.w3.org/1999/xlink">
    <!-- Generator: Sketch 56.3 (81716) - https://sketch.com -->
    <title>Group 38</title>
    <desc>Created with Sketch.</desc>
    <g id="Welcome" stroke="none" stroke-width="1" fill="none" fill-rule="evenodd">
        <g id="Dashboard-Ops" transform="translate(-1277.000000, -214.000000)">
            <g id="Group-45" transform="translate(64.000000, 172.000000)">
                <g id="Group-38" transform="translate(1213.000000, 42.000000)">
                    <g id="Group-46">
                        <g id="Group-3" fill="#47B881">
                            <circle id="Oval" cx="25.6" cy="25.6" r="25.6"></circle>
                        </g>
                        <g id="noun_request_2863928" transform="translate(5.600000, 16.000000)" fill="#FFFFFF">
                            <path d="M23.04,3.84 C23.747456,3.84 24.32,4.4130816 24.32,5.12 L24.32,8.96 C24.32,9.6669184 23.747456,10.24 23.04,10.24 C22.332544,10.24 21.76,9.6669184 21.76,8.96 L21.76,5.12 C21.76,4.4130816 22.332544,3.84 23.04,3.84 Z" id="Path" fill-rule="nonzero"></path>
                            <path d="M24.32,12.8 C24.32,12.0930816 23.747456,11.52 23.04,11.52 C22.332544,11.52 21.76,12.0930816 21.76,12.8 C21.76,13.506944 22.332544,14.08 23.04,14.08 C23.747456,14.08 24.32,13.506944 24.32,12.8 Z" id="Path" fill-rule="nonzero"></path>
                            <path d="M12.8,0 C12.0925056,0 11.52,0.57308544 11.52,1.28 L11.52,16.64 C11.52,17.346944 12.0925056,17.92 12.8,17.92 L16,17.92 L16,21.76 C16,22.264064 16.296192,22.721152 16.756224,22.927616 C17.214976,23.13408 17.753728,23.05152 18.130048,22.716672 L23.526272,17.92 L33.28,17.92 C33.987456,17.92 34.56,17.346944 34.56,16.64 L34.56,1.28 C34.56,0.57308544 33.987456,0 33.28,0 L12.8,0 Z M14.08,2.56 L32,2.56 L32,15.36 L23.04,15.36 C22.726272,15.36 22.423808,15.475072 22.189952,15.683328 L18.56,18.909696 L18.56,16.64 C18.56,15.933056 17.987456,15.36 17.28,15.36 L14.08,15.36 L14.08,2.56 Z" id="Shape"></path>
                            <path d="M1.28,2.56 C0.57250048,2.56 0,3.1330816 0,3.84 C0,4.5469184 0.57250048,5.12 1.28,5.12 L8.96,5.12 C9.6674944,5.12 10.24,4.5469184 10.24,3.84 C10.24,3.1330816 9.6674944,2.56 8.96,2.56 L1.28,2.56 Z" id="Path" fill-rule="nonzero"></path>
                            <path d="M2.56,8.96 C2.56,8.2530816 3.1325056,7.68 3.84,7.68 L8.96,7.68 C9.6674944,7.68 10.24,8.2530816 10.24,8.96 C10.24,9.6669184 9.6674944,10.24 8.96,10.24 L3.84,10.24 C3.1325056,10.24 2.56,9.6669184 2.56,8.96 Z" id="Path" fill-rule="nonzero"></path>
                            <path d="M6.4,12.8 C5.6925056,12.8 5.12,13.373056 5.12,14.08 C5.12,14.786944 5.6925056,15.36 6.4,15.36 L8.96,15.36 C9.6674944,15.36 10.24,14.786944 10.24,14.08 C10.24,13.373056 9.6674944,12.8 8.96,12.8 L6.4,12.8 Z" id="Path" fill-rule="nonzero"></path>
                        </g>
                    </g>
                </g>
            </g>
        </g>
    </g>
</svg>