<?xml version="1.0" encoding="UTF-8"?>
<svg width="20px" height="20px" viewBox="0 0 20 20" version="1.1" xmlns="http://www.w3.org/2000/svg" xmlns:xlink="http://www.w3.org/1999/xlink">
    <!-- Generator: Sketch 56.3 (81716) - https://sketch.com -->
    <title>icons/ic/outline-contact_support-24px</title>
    <desc>Created with Sketch.</desc>
    <defs>
        <path d="M7.83359207,13.7808368 L9.31854471,15.2657895 L14.5843342,10 L9.31854471,4.73421053 L7.83359207,6.21916316 L10.5507394,8.94684211 L0.366702601,8.94684211 L0.366702601,11.0531579 L10.5507394,11.0531579 L7.83359207,13.7808368 Z M17.2172289,0.521578947 L2.47301839,0.521578947 C1.30401313,0.521578947 0.366702601,1.46942105 0.366702601,2.62789474 L0.366702601,6.84052632 L2.47301839,6.84052632 L2.47301839,2.62789474 L17.2172289,2.62789474 L17.2172289,17.3721053 L2.47301839,17.3721053 L2.47301839,13.1594737 L0.366702601,13.1594737 L0.366702601,17.3721053 C0.366702601,18.5305789 1.30401313,19.4784211 2.47301839,19.4784211 L17.2172289,19.4784211 C18.3757026,19.4784211 19.3235447,18.5305789 19.3235447,17.3721053 L19.3235447,2.62789474 C19.3235447,1.46942105 18.3757026,0.521578947 17.2172289,0.521578947 Z" id="path-1"></path>
    </defs>
    <g id="Page-1" stroke="none" stroke-width="1" fill="none" fill-rule="evenodd">
        <g id="0-1-1-EC-Agent/-User-Settings" transform="translate(-1829.000000, -22.000000)">
            <g id="Group-12" transform="translate(10.000000, 0.000000)">
                <g id="Group-11" transform="translate(-10.000000, 0.000000)">
                    <g id="Group-10">
                        <g id="header">
                            <g id="Group-6" transform="translate(1791.000000, 22.000000)">
                                <g id="icons/ic/outline-contact_support-24px" transform="translate(38.000000, 0.000000)">
                                    <mask id="mask-2" fill="white">
                                        <use xlink:href="#path-1"></use>
                                    </mask>
                                    <g id="icons/ic/outline-exit_to_app-24px" fill-rule="nonzero"></g>
                                    <g id="🎨-color" mask="url(#mask-2)" fill="#FFFFFF">
                                        <g transform="translate(-2.000000, -2.000000)" id="BG">
                                            <rect x="0" y="0" width="24" height="24"></rect>
                                        </g>
                                    </g>
                                </g>
                            </g>
                        </g>
                    </g>
                </g>
            </g>
        </g>
    </g>
</svg>