<?xml version="1.0" encoding="UTF-8"?>
<svg width="18px" height="20px" viewBox="0 0 18 20" version="1.1" xmlns="http://www.w3.org/2000/svg" xmlns:xlink="http://www.w3.org/1999/xlink">
    <!-- Generator: Sketch 56.3 (81716) - https://sketch.com -->
    <title>icons/ic/outline-dashboard-24px</title>
    <desc>Created with Sketch.</desc>
    <defs>
        <path d="M8.565,19.6650476 L8.565,16.6821905 C4.2063,16.4667619 0.735,13.0199048 0.735,8.81904762 C0.735,4.47733333 4.4412,0.947619048 9,0.947619048 C13.5588,0.947619048 17.265,4.47733333 17.265,8.81904762 C17.265,12.9204762 14.2722,17.0467619 9.8091,19.0933333 L8.565,19.6650476 Z M9,2.6047619 C5.3982,2.6047619 2.475,5.3887619 2.475,8.81904762 C2.475,12.2493333 5.3982,15.0333333 9,15.0333333 L10.305,15.0333333 L10.305,16.9390476 C13.4718,15.0333333 15.525,11.9013333 15.525,8.81904762 C15.525,5.3887619 12.6018,2.6047619 9,2.6047619 Z M8.13,12.1333333 L9.87,12.1333333 L9.87,13.7904762 L8.13,13.7904762 L8.13,12.1333333 Z M9.87,10.8904762 L8.13,10.8904762 C8.13,8.19761905 10.74,8.4047619 10.74,6.74761905 C10.74,5.83619048 9.957,5.09047619 9,5.09047619 C8.043,5.09047619 7.26,5.83619048 7.26,6.74761905 L5.52,6.74761905 C5.52,4.91647619 7.0773,3.43333333 9,3.43333333 C10.9227,3.43333333 12.48,4.91647619 12.48,6.74761905 C12.48,8.81904762 9.87,9.02619048 9.87,10.8904762 Z" id="path-1"></path>
    </defs>
    <g id="Page-1" stroke="none" stroke-width="1" fill="none" fill-rule="evenodd">
        <g id="0-1-1-EC-Agent/-User-Settings" transform="translate(-1770.000000, -95.000000)">
            <g id="Group-2" transform="translate(0.000000, 64.000000)">
                <g id="navigation/icon/menu.item/default-copy-2" transform="translate(1770.000000, 30.444444)">
                    <g id="navigation/icon/menu.item/hover">
                        <g id="icons/ic/outline-dashboard-24px">
                            <mask id="mask-2" fill="white">
                                <use xlink:href="#path-1"></use>
                            </mask>
                            <g id="icons/icons/ic/outline-contact_support-24px" fill-rule="nonzero"></g>
                            <g id="🎨-color" mask="url(#mask-2)" fill="#66788A">
                                <g transform="translate(-3.000000, -0.952381)" id="BG">
                                    <rect x="0" y="0" width="24" height="22.8571429"></rect>
                                </g>
                            </g>
                        </g>
                    </g>
                </g>
            </g>
        </g>
    </g>
</svg>