<?xml version="1.0" encoding="UTF-8"?>
<svg width="17px" height="17px" viewBox="0 0 17 17" version="1.1" xmlns="http://www.w3.org/2000/svg" xmlns:xlink="http://www.w3.org/1999/xlink">
    <!-- Generator: Sketch 56.3 (81716) - https://sketch.com -->
    <title>ic_search_24px</title>
    <desc>Created with Sketch.</desc>
    <defs>
        <path d="M12.1497999,10.6918239 L11.3819325,10.6918239 L11.109777,10.4293882 C12.0623213,9.32132647 12.6357919,7.88279017 12.6357919,6.31789594 C12.6357919,2.82847341 9.80731847,0 6.31789594,0 C2.82847341,0 0,2.82847341 0,6.31789594 C0,9.80731847 2.82847341,12.6357919 6.31789594,12.6357919 C7.88279017,12.6357919 9.32132647,12.0623213 10.4293882,11.109777 L10.6918239,11.3819325 L10.6918239,12.1497999 L15.5517439,17 L17,15.5517439 L12.1497999,10.6918239 Z M6.5,11 C4.01,11 2,8.99 2,6.5 C2,4.01 4.01,2 6.5,2 C8.99,2 11,4.01 11,6.5 C11,8.99 8.99,11 6.5,11 Z" id="path-1"></path>
    </defs>
    <g id="Welcome" stroke="none" stroke-width="1" fill="none" fill-rule="evenodd">
        <g id="Dashboard-Ops" transform="translate(-99.000000, -396.000000)">
            <g id="search" transform="translate(91.000000, 387.000000)">
                <g id="ic_search_24px" transform="translate(8.000000, 9.000000)">
                    <mask id="mask-2" fill="white">
                        <use xlink:href="#path-1"></use>
                    </mask>
                    <g id="Shape" fill-rule="nonzero"></g>
                    <g id="🎨-Color" mask="url(#mask-2)" fill="#9EA0A5">
                        <g transform="translate(-3.000000, -3.000000)" id="Shape">
                            <rect x="0" y="0" width="24" height="24"></rect>
                        </g>
                    </g>
                </g>
            </g>
        </g>
    </g>
</svg>