<?xml version="1.0" encoding="UTF-8"?>
<svg width="64px" height="64px" viewBox="0 0 64 64" version="1.1" xmlns="http://www.w3.org/2000/svg" xmlns:xlink="http://www.w3.org/1999/xlink">
    <!-- Generator: Sketch 56.3 (81716) - https://sketch.com -->
    <title>Group 17</title>
    <desc>Created with Sketch.</desc>
    <g id="Welcome" stroke="none" stroke-width="1" fill="none" fill-rule="evenodd">
        <g id="Dashboard-User" transform="translate(-852.000000, -447.000000)">
            <g id="Group-47" transform="translate(731.000000, 365.000000)">
                <g id="Group-17" transform="translate(121.000000, 82.000000)">
                    <g id="Group-27-Copy" fill="#47B881">
                        <circle id="Oval" cx="32" cy="32" r="32"></circle>
                    </g>
                    <g id="Group" transform="translate(14.000000, 12.000000)" fill="#FFFFFF" fill-rule="nonzero">
                        <g id="Group-16">
                            <polygon id="Path" points="22.173986 11.34 15.2408392 16.3467692 12.8844755 13.5996923 10.8 15.2833846 14.7876923 19.98 23.76 13.5110769"></polygon>
                            <path d="M30.6335476,22.7068571 C31.2200514,21.6685714 30.859126,20.54 30.5884319,19.6371429 C30.4635043,19.3010465 30.3728129,18.9531869 30.3177378,18.5988571 C30.5269358,18.3151822 30.7692717,18.0575451 31.0395887,17.8314286 C31.7614396,17.1542857 32.6637532,16.3417143 32.6637532,15.1228571 C32.6637532,13.904 31.7614396,13.0914286 31.0395887,12.4142857 C30.7774749,12.1960399 30.5358522,11.9542717 30.3177378,11.692 C30.3496257,11.3378863 30.4254,10.9891149 30.5433162,10.6537143 C30.8140103,9.75085714 31.1749357,8.57714286 30.5884319,7.584 C30.001928,6.59085714 28.8289203,6.27485714 27.881491,6.04914286 C27.5427402,5.99085713 27.2103663,5.90015508 26.888946,5.77828571 C26.7410532,5.44663362 26.6349687,5.09786017 26.5731362,4.74 C26.3475578,3.792 26.0768638,2.61828571 25.0392031,2.03142857 C24.0015424,1.44457143 22.8736504,1.80571429 21.9713368,2.07657143 C21.634673,2.19911797 21.2872649,2.28980077 20.9336761,2.34742857 C20.6817992,2.13276125 20.4547997,1.89048257 20.2569409,1.62514286 C19.5802057,0.902857143 18.7681234,0 17.55,0 C16.3318766,0 15.5197943,0.902857143 14.8430591,1.62514286 C14.6249447,1.88741452 14.383322,2.12918275 14.1212082,2.34742857 C13.7673077,2.31552142 13.4187462,2.23970154 13.0835476,2.12171429 C12.1812339,1.85085714 11.0082262,1.48971429 10.0156812,2.07657143 C9.02313625,2.66342857 8.70732648,3.83714286 8.48174807,4.78514286 C8.42349743,5.1240977 8.33284999,5.45667186 8.21105398,5.77828571 C7.87960154,5.92626762 7.53103806,6.03241606 7.17339332,6.09428571 C6.22596401,6.32 5.0529563,6.59085714 4.46645244,7.62914286 C3.87994859,8.66742857 4.24087404,9.796 4.51156812,10.6988571 C4.63679182,11.0348599 4.72749113,11.38275 4.78226221,11.7371429 C4.57306423,12.0208178 4.33072825,12.2784549 4.06041131,12.5045714 C3.33856041,13.1817143 2.43624679,13.9942857 2.43624679,15.2131429 C2.43624679,16.432 3.33856041,17.2445714 4.06041131,17.9217143 C4.32252509,18.1399601 4.56414778,18.3817283 4.78226221,18.644 C4.75037427,18.9981137 4.67460003,19.3468851 4.5566838,19.6822857 C4.28598972,20.5851429 3.92506427,21.7588571 4.51156812,22.752 C5.09807198,23.7451429 6.18084833,24.016 7.08316195,24.2417143 L0,38.0554286 L5.95526992,37.5588571 L9.06825193,42.66 L15.7453728,29.5685714 C16.755964,30.531619 18.344036,30.531619 19.3546272,29.5685714 L25.9866324,42.66 L29.0996144,37.5588571 L35.1,38.0554286 L28.0619537,24.1965714 C28.9642674,23.9708571 30.0470437,23.7 30.6335476,22.7068571 Z M8.8877892,37.1074286 L7.39897172,34.7148571 L4.60179949,34.9405714 L8.79755784,26.6794286 C8.99407525,27.3141544 9.40987162,27.8582156 9.97056555,28.2142857 C11.0082262,28.8011429 12.1361183,28.44 13.0384319,28.1691429 L13.3993573,28.0337143 L8.8877892,37.1074286 Z M17.55,27.5371429 C17.2918106,27.3309479 17.0504316,27.1045187 16.8281491,26.86 C16.2867609,26.2731429 15.6551414,25.596 14.7979434,25.3702857 L14.0760925,25.28 C13.4448507,25.3064591 12.8212291,25.4282146 12.2263496,25.6411429 L11.324036,25.8668571 C11.2130922,25.5725152 11.1226446,25.2708418 11.0533419,24.964 C10.8728792,24.1514286 10.6924165,23.2937143 10.0156812,22.6165714 C9.33894602,21.9394286 8.48174807,21.7588571 7.66966581,21.5782857 L6.76735219,21.3074286 C6.82243771,21.0018007 6.89779715,20.7001813 6.99293059,20.4045714 C7.218509,19.6371429 7.48920308,18.7342857 7.26362468,17.8765714 C7.03804627,17.0188571 6.36131105,16.3868571 5.7748072,15.8451429 C5.53030067,15.6228636 5.30399732,15.381328 5.09807198,15.1228571 C5.3041428,14.8645122 5.53043566,14.6229878 5.7748072,14.4005714 C6.36131105,13.8588571 7.03804627,13.2268571 7.26362468,12.3691429 C7.48920308,11.5114286 7.218509,10.6085714 6.99293059,9.84114286 C6.89779715,9.54553296 6.82243771,9.24391362 6.76735219,8.93828571 L7.66966581,8.66742857 C8.48174807,8.48685714 9.33894602,8.30628571 10.0156812,7.62914286 C10.6924165,6.952 10.8728792,6.09428571 11.0533419,5.28171429 C11.1227833,4.97490899 11.213228,4.67324501 11.324036,4.37885714 L12.2263496,4.60457143 C12.9933162,4.83028571 13.8956298,5.10114286 14.7528278,4.87542857 C15.6100257,4.64971429 16.2416452,3.97257143 16.7830334,3.38571429 C17.0231216,3.17052488 17.279548,2.97431599 17.55,2.79885714 C17.8080653,3.00519553 18.0494334,3.23161441 18.2718509,3.476 C18.8132391,4.06285714 19.4448586,4.74 20.3020566,4.96571429 C21.1592545,5.19142857 22.0615681,4.92057143 22.8285347,4.69485714 L23.7308483,4.46914286 C23.8419299,4.76343817 23.9323803,5.06512129 24.0015424,5.372 C24.1820051,6.18457143 24.3624679,7.04228571 25.0392031,7.71942857 C25.7159383,8.39657143 26.5731362,8.57714286 27.3852185,8.75771429 L28.2875321,9.02857143 C28.232578,9.33422758 28.1572164,9.63585563 28.0619537,9.93142857 C27.8363753,10.6988571 27.5656812,11.6017143 27.7912596,12.4594286 C28.016838,13.3171429 28.6935733,13.9491429 29.2800771,14.4908571 C29.5244487,14.7132735 29.7507415,14.9547979 29.9568123,15.2131429 C29.7507415,15.4714878 29.5244487,15.7130122 29.2800771,15.9354286 C28.6935733,16.4771429 28.016838,17.1091429 27.7912596,17.9668571 C27.5656812,18.8245714 27.8363753,19.7274286 28.0619537,20.4948571 C28.15748,20.7903546 28.2328461,21.0920006 28.2875321,21.3977143 L27.3852185,21.6685714 C26.5731362,21.8491429 25.7159383,22.0297143 25.0392031,22.7068571 C24.3624679,23.384 24.1820051,24.2417143 24.0015424,25.0542857 C23.9323803,25.3611644 23.8419299,25.6628475 23.7308483,25.9571429 L22.8285347,25.7314286 C22.0615681,25.5057143 21.1592545,25.2348571 20.3020566,25.4605714 C19.4448586,25.6862857 18.8132391,26.3634286 18.2718509,26.9502857 C18.0460833,27.1635138 17.8048029,27.3596722 17.55,27.5371429 Z M27.7010283,34.7148571 L26.2122108,37.1074286 L21.655527,28.0788571 L22.0164524,28.2142857 C22.9187661,28.4851429 24.0917738,28.8462857 25.0843188,28.2594286 C25.6450127,27.9033585 26.0608091,27.3592972 26.2573265,26.7245714 L30.4530848,34.9857143 L27.7010283,34.7148571 Z" id="Shape"></path>
                        </g>
                    </g>
                </g>
            </g>
        </g>
    </g>
</svg>