<?xml version="1.0" encoding="UTF-8"?>
<svg width="13px" height="15px" viewBox="0 0 13 15" version="1.1" xmlns="http://www.w3.org/2000/svg" xmlns:xlink="http://www.w3.org/1999/xlink">
    <!-- Generator: Sketch 56.3 (81716) - https://sketch.com -->
    <title>noun_Delete_2899273</title>
    <desc>Created with Sketch.</desc>
    <g id="Welcome" stroke="none" stroke-width="1" fill="none" fill-rule="evenodd">
        <g id="Maintain---hover-agent---create" transform="translate(-1372.000000, -310.000000)" fill="#9EA0A5" fill-rule="nonzero">
            <g id="Group-17" transform="translate(1276.000000, 253.000000)">
                <g id="Group-16" transform="translate(1.000000, 56.000000)">
                    <g id="noun_Delete_2899273" transform="translate(95.000000, 1.000000)">
                        <g id="Group">
                            <path d="M3.84,1.28 L8.96,1.28 C9.31346224,1.28 9.6,0.99346224 9.6,0.64 C9.6,0.28653776 9.31346224,0 8.96,0 L3.84,0 C3.48653776,0 3.2,0.28653776 3.2,0.64 C3.2,0.99346224 3.48653776,1.28 3.84,1.28 Z" id="Path"></path>
                            <path d="M12.16,2.56 L0.64,2.56 C0.28653776,2.56 0,2.84653776 0,3.2 C0,3.55346224 0.28653776,3.84 0.64,3.84 L1.28,3.84 L1.28,12.16 C1.28,13.2203867 2.13961328,14.08 3.2,14.08 L9.6,14.08 C10.6603867,14.08 11.52,13.2203867 11.52,12.16 L11.52,3.84 L12.16,3.84 C12.5134622,3.84 12.8,3.55346224 12.8,3.2 C12.8,2.84653776 12.5134622,2.56 12.16,2.56 Z M4.48,10.88 C4.48,11.2334622 4.19346224,11.52 3.84,11.52 C3.48653776,11.52 3.2,11.2334622 3.2,10.88 L3.2,5.76 C3.2,5.40653776 3.48653776,5.12 3.84,5.12 C4.19346224,5.12 4.48,5.40653776 4.48,5.76 L4.48,10.88 Z M7.04,10.88 C7.04,11.2334622 6.75346224,11.52 6.4,11.52 C6.04653776,11.52 5.76,11.2334622 5.76,10.88 L5.76,5.76 C5.76,5.40653776 6.04653776,5.12 6.4,5.12 C6.75346224,5.12 7.04,5.40653776 7.04,5.76 L7.04,10.88 Z M9.6,10.88 C9.6,11.2334622 9.31346224,11.52 8.96,11.52 C8.60653776,11.52 8.32,11.2334622 8.32,10.88 L8.32,5.76 C8.32,5.40653776 8.60653776,5.12 8.96,5.12 C9.31346224,5.12 9.6,5.40653776 9.6,5.76 L9.6,10.88 Z" id="Shape"></path>
                        </g>
                    </g>
                </g>
            </g>
        </g>
    </g>
</svg>