<?xml version="1.0" encoding="UTF-8"?>
<svg width="19px" height="11px" viewBox="0 0 19 11" version="1.1" xmlns="http://www.w3.org/2000/svg" xmlns:xlink="http://www.w3.org/1999/xlink">
    <!-- Generator: Sketch 56.3 (81716) - https://sketch.com -->
    <title>Group</title>
    <desc>Created with Sketch.</desc>
    <g id="Welcome" stroke="none" stroke-width="1" fill="none" fill-rule="evenodd">
        <g id="View---Topology-second-click" transform="translate(-1188.000000, -273.000000)" fill="#3B73B9" fill-rule="nonzero" stroke="#3B73B9" stroke-width="0.54">
            <g id="Group-16" transform="translate(1142.000000, 268.000000)">
                <g id="Group" transform="translate(47.000000, 6.000000)">
                    <path d="M8.81191486,1.96287431e-13 C5.15679249,1.96287431e-13 1.93325351,1.7151933 0.103342231,4.33147049 C-0.0423598153,4.56418649 -0.0263012628,4.81712006 0.103342231,4.99363508 C1.93325351,7.60992587 5.15679249,9.3312 8.81191486,9.3312 C12.4670372,9.3312 15.6905762,7.60992587 17.520507,4.99363508 C17.6579055,4.79709688 17.6633302,4.53763147 17.520507,4.33147049 C15.6905762,1.7151933 12.4670372,1.96287431e-13 8.81191486,1.96287431e-13 Z M8.81191486,1.36079858 C10.6575517,1.36079858 12.1411269,2.83351313 12.1411269,4.66558542 C12.1411269,6.49766743 10.6575517,7.97038198 8.81191486,7.97038198 C6.96627801,7.97038198 5.48270277,6.49766743 5.48270277,4.66558542 C5.48270277,2.83351313 6.96627801,1.36079858 8.81191486,1.36079858 Z M5.39091443,1.76174816 C4.7157698,2.54396241 4.30768674,3.55901512 4.30768674,4.66558542 C4.30768674,5.77057331 4.71751274,6.78160778 5.39091443,7.56336712 C3.73939023,6.96175807 2.33221062,5.94485273 1.33342741,4.66558542 C2.33266104,3.38419138 3.7379998,2.36278179 5.39091443,1.76174816 Z M12.2329349,1.76781344 C13.8843807,2.36900648 15.2918345,3.38503702 16.2904023,4.66558542 C15.2916387,5.94485273 13.8844395,6.96173863 12.2329349,7.56334768 C12.906317,6.78160778 13.316143,5.77057331 13.316143,4.66558542 C13.316143,3.56061308 12.906317,2.54957862 12.2329349,1.76781344 L12.2329349,1.76781344 Z M8.81191486,2.72159717 C7.73730394,2.72159717 6.8535548,3.59886513 6.8535548,4.66558542 C6.8535548,5.73231543 7.73730394,6.6095834 8.81191486,6.6095834 C9.88652577,6.6095834 10.7702749,5.73231543 10.7702749,4.66558542 C10.7702749,3.59886513 9.88652577,2.72159717 8.81191486,2.72159717 Z M8.81191486,3.88799595 C9.25150794,3.88799595 9.59525888,4.22923563 9.59525888,4.66558542 C9.59525888,5.10195465 9.25150794,5.44318461 8.81191486,5.44318461 C8.37232177,5.44318461 8.02857083,5.10195465 8.02857083,4.66558542 C8.02857083,4.22923563 8.37232177,3.88799595 8.81191486,3.88799595 Z" id="Shape"></path>
                </g>
            </g>
        </g>
    </g>
</svg>